<svg width="40" height="40" viewBox="0 0 40 40" fill="none" xmlns="http://www.w3.org/2000/svg">
<path d="M28.3333 5.83342C28.3333 5.61241 28.2455 5.40045 28.0893 5.24417C27.933 5.08789 27.721 5.00009 27.5 5.00009H23.3333C21.2352 4.89557 19.181 5.62574 17.6195 7.03106C16.0581 8.43637 15.1163 10.4026 15 12.5001V17.0001H10.8333C10.6123 17.0001 10.4004 17.0879 10.2441 17.2442C10.0878 17.4004 10 17.6124 10 17.8334V22.1668C10 22.3878 10.0878 22.5997 10.2441 22.756C10.4004 22.9123 10.6123 23.0001 10.8333 23.0001H15V34.1668C15 34.3878 15.0878 34.5997 15.2441 34.756C15.4004 34.9123 15.6123 35.0001 15.8333 35.0001H20.8333C21.0543 35.0001 21.2663 34.9123 21.4226 34.756C21.5789 34.5997 21.6667 34.3878 21.6667 34.1668V23.0001H26.0333C26.2187 23.0028 26.3996 22.9436 26.5475 22.8319C26.6954 22.7202 26.8018 22.5624 26.85 22.3834L28.05 18.0501C28.0832 17.927 28.0876 17.7979 28.063 17.6727C28.0384 17.5476 27.9855 17.4298 27.9082 17.3284C27.8309 17.2269 27.7314 17.1446 27.6173 17.0877C27.5032 17.0308 27.3775 17.0008 27.25 17.0001H21.6667V12.5001C21.7081 12.0876 21.9019 11.7053 22.21 11.4279C22.5182 11.1505 22.9187 10.998 23.3333 11.0001H27.5C27.721 11.0001 27.933 10.9123 28.0893 10.756C28.2455 10.5997 28.3333 10.3878 28.3333 10.1668V5.83342Z" fill="#B6B6BC"/>
</svg>
