<svg width="40" height="40" viewBox="0 0 40 40" fill="none" xmlns="http://www.w3.org/2000/svg">
<path d="M19.9978 2.5C10.3356 2.5 2.5 10.5335 2.5 20.4435C2.5 28.3698 7.51375 35.0941 14.47 37.4689C15.345 37.6342 15.6644 37.0802 15.6644 36.6043C15.6644 36.1776 15.6491 35.0495 15.6403 33.5527C10.7731 34.6362 9.745 31.1466 9.745 31.1466C8.95094 29.0735 7.8025 28.5217 7.8025 28.5217C6.21219 27.4092 7.92062 27.4315 7.92062 27.4315C9.67719 27.5588 10.6003 29.2813 10.6003 29.2813C12.1622 32.0224 14.6975 31.2315 15.695 30.7713C15.8525 29.6119 16.3053 28.821 16.8062 28.372C12.9212 27.9185 8.835 26.3793 8.835 19.5052C8.835 17.546 9.5175 15.9442 10.6375 14.6887C10.4559 14.2352 9.85656 12.41 10.8081 9.94147C10.8081 9.94147 12.2781 9.45893 15.6206 11.7801C17.0163 11.3824 18.5125 11.1836 20.0022 11.1769C21.4875 11.1858 22.9859 11.3824 24.3837 11.7823C27.7241 9.46116 29.1919 9.94371 29.1919 9.94371C30.1456 12.4145 29.5462 14.2375 29.3669 14.691C30.4891 15.9465 31.165 17.5483 31.165 19.5075C31.165 26.3994 27.0744 27.9163 23.1762 28.3608C23.8041 28.9149 24.3641 30.0095 24.3641 31.6828C24.3641 34.0821 24.3422 36.0168 24.3422 36.6043C24.3422 37.0846 24.6572 37.6431 25.5453 37.4666C32.4906 35.0897 37.5 28.3675 37.5 20.4435C37.5 10.5335 29.6644 2.5 19.9978 2.5Z" fill="#B6B6BC"/>
</svg>
