<svg width="40" height="40" viewBox="0 0 40 40" fill="none" xmlns="http://www.w3.org/2000/svg">
<path d="M34.9925 32.5V32.4988H35V21.4963C35 16.1138 33.8413 11.9675 27.5488 11.9675C24.5238 11.9675 22.4938 13.6275 21.665 15.2013H21.5775V12.47H15.6113V32.4988H21.8237V22.5813C21.8237 19.97 22.3188 17.445 25.5525 17.445C28.7388 17.445 28.7863 20.425 28.7863 22.7488V32.5H34.9925Z" fill="#B6B6BC"/>
<path d="M5.495 12.4712H11.715V32.5H5.495V12.4712Z" fill="#B6B6BC"/>
<path d="M8.6025 2.5C6.61375 2.5 5 4.11375 5 6.1025C5 8.09125 6.61375 9.73875 8.6025 9.73875C10.5912 9.73875 12.205 8.09125 12.205 6.1025C12.2038 4.11375 10.59 2.5 8.6025 2.5Z" fill="#B6B6BC"/>
</svg>
